<svg xmlns="http://www.w3.org/2000/svg" viewBox="0 0 1000 1000"><path d="M989.3 637.8c-2-52.4-8.3-100.6-18.8-143.4-13.1-53.3-32.7-98.4-58.5-134.2l-1.1-1.7c-.5-.7-9.8-14.6-27.4-34.9 23.7-30 35.1-71.5 35.7-103.9.3-13.8-1.7-26.7-3.5-39.1-1.6-10.9-3.2-21.2-3.1-31 .2-21.1 3.8-43.7 10.4-67.3l9.6-33.7-33.9 3.4c-1.4 0-2.7.2-4.1.4-70.2 7.4-127.7 27-170.9 58.5-27 19.7-44.5 41.1-55.6 59.4-15.3-5.8-30.8-10.8-46.5-14.9-17.6-47.5-39.1-80.7-63.8-98.9l-41.4-30.4 3.5 51.3c0 .4 2.1 34.5-2.9 65.4-3.6-.1-7.3 2-10.9 2h-12.3c-3.6 0-7.2-2.1-10.9-2C478 112 480 78.9 480 78.5l3.5-51.8-41.4 30.1c-24.7 18.2-46.2 51.3-63.8 98.7-15.6 4.1-31.2 9-46.5 14.8-11.1-18.4-28.5-39.8-55.6-59.5C232.7 79.2 174.8 59.5 104 52.2c-.9-.1-1.8-.3-2.7-.3l-33.9-3.4L77 82.2c6.7 23.6 10.2 46.2 10.4 67.3.1 9.8-1.4 20.1-3.1 31-1.9 12.5-3.8 25.4-3.5 39.1.6 32.4 12 73.8 35.7 103.9-17.6 20.4-26.9 34.2-27.4 34.9l-1.1 1.7C62.2 395.9 42.6 441 29.5 494.4c-10.5 42.8-16.8 91-18.8 143.4-3.4 88.6 6.8 158 7.2 160.9l17.7 118.9L64.7 801c4.7-18.7 12.2-32.9 20.2-43.6 2.2 12.2 5.6 25.2 10.3 38.9 8.8 25.7 19 44.7 19.4 45.5l27.8 51.8 16.2-56.6c3.8-13.2 15.3-22.9 26.6-29.4 21.5 42.9 61 77.4 115.4 100.5 21.5 9.1 41.9 15 57.9 18.8 12.1 21.6 30.4 35.4 53.6 39.9 24.4 4.7 46.7 7.1 66.4 7.1 9.7 0 16.7-.6 21.1-1.2 4.4.5 11.4 1.2 21.1 1.2 19.7 0 42-2.4 66.4-7.1 23.1-4.5 41.4-18.2 53.5-39.7 16.1-3.7 36.8-9.7 58.6-19 54.5-23.1 93.9-57.5 115.4-100.5 11.3 6.6 22.8 16.2 26.6 29.4l16.2 56.6 27.8-51.8c.4-.8 10.6-19.8 19.4-45.5 4.7-13.7 8.1-26.7 10.3-38.9 8.1 10.7 15.6 24.9 20.2 43.6l29.1 116.6 17.6-118.9c.8-2.9 10.9-72.3 7.5-160.9zm-124-500.6c-.2 4-.4 7.9-.4 11.8-.2 13.6 1.7 26.3 3.6 38.6 1.6 11 3.2 21.4 3 31.1-.4 21.8-7.8 49.5-21.4 69.6-11.6-14.9-25.1-38.6-24.5-67.4.7-27.6 14-55.6 39.7-83.7zm-733.8 50.5c1.8-12.3 3.7-25 3.6-38.6 0-3.7-.2-7.4-.4-11.2 25.2 27.7 38.2 55.4 39 82.7.8 28.7-12.6 52.4-24.1 67.4-13.4-20.1-20.7-47.6-21.1-69.3-.1-9.7 1.4-20 3-31zm474.8 696.5c-1.8 7.9-4.6 15.9-8.9 22.4-4.5 6.6-10.7 11.6-19.2 13.3-1 .2-2 .4-3.1.6-25.1 4.7-43.3 5.7-54.3 5.7-10.8 0-16.3-.9-16.9-1l-4.2-.7-4.2.7c-.6.1-6.1 1-16.9 1-10.9 0-29-1-53.8-5.6-1.2-.2-2.3-.4-3.5-.7-3.4-.7-11.7-2.3-19-13-3.1-4.7-6.1-11-8.3-19.8-.2-.8-.4-1.7-.6-2.5-.9-4-1.6-8-2.1-11.7 3.4.9 6.9 1.8 10.5 2.6 8.2 1.8 16.7 3.2 25.4 4.3 8.4 1 16.9 1.8 25.5 2.3 15.9 1 31.9 1.2 47.1 1.2 15.4 0 31.6-.3 47.7-1.3 8.6-.5 17.1-1.3 25.5-2.4 8.7-1.1 17.2-2.5 25.3-4.3 3.4-.8 6.8-1.6 10.1-2.5-.6 3.6-1.2 7.5-2.1 11.4zm30.2-96.5c-1.2 14.5-8.1 26.2-27.4 34.4-4.1 1.8-8.8 3.3-14.1 4.8-6.3 1.7-13.5 3.2-21.8 4.4-11.8 1.7-25.6 3-41.8 3.6-8 .3-16.5.5-25.6.6h-12.2c-8.9-.1-17.2-.2-25-.6-16.1-.7-29.9-1.8-41.6-3.5-8.9-1.3-16.6-2.8-23.2-4.7-5-1.4-9.4-2.9-13.4-4.6-19.3-8.2-26.2-19.9-27.4-34.4-.1-1.7-.2-3.4-.2-5.2 0-2.2.1-4.3.3-6.5.1-1.1.2-2.2.4-3.2 1.3-9.5 4.4-19.3 9.1-28.9 3.4-6.9 7.6-13.8 12.6-20.4 4.7-6.2 10.1-12.2 16.1-17.8.3-.3.7-.6 1-.9 27.3-25.1 61.9-38.9 97.6-38.9 35.7 0 70.3 13.8 97.6 38.9l.4.4c6 5.6 11.5 11.5 16.2 17.8 5 6.6 9.3 13.4 12.7 20.3 4.9 9.8 8.1 19.9 9.4 29.6.1 1.1.3 2.2.4 3.2.2 2.2.3 4.4.3 6.5-.2 1.7-.3 3.4-.4 5.1zM397.4 648.2c3.6-7.8 7.2-15 10.6-21.4 8.8-4.4 26.9-12.4 51.1-17.1.6-.1 1.3-.3 1.9-.4 26.5-4.9 52.7-4.8 78.5.4 17.6 3.5 35.1 9.4 52.2 17.6 3.8 7.1 7.2 14.1 10.3 20.9-30.7-19.6-66-30.2-102.3-30.2-36.2 0-71.6 10.6-102.3 30.2zm543.9 66.5c-14.9-15.3-29.8-23.9-38.7-28.1l-43-20.5 9.3 46.7c4 20-1.9 46.2-9.4 68.3-11.5-10.3-27.5-20.2-49.5-27.9l-23-8-7.5 23.2c-19.6 60.3-78.9 90.4-123.2 104.7.5-5.5.7-10.4.8-14.5C710.2 836 746.3 786 761.7 713c11.7-55.3 7.5-104.6 7.3-106.7l-5.1-57.4-37 44.1c-17.3 20.7-41.9 43.2-68.7 65.2-7-18.5-15.9-38.3-27.2-59.1-12.6-23.2-17.7-48.7-14.5-71.8.3-2.2.7-4.3 1.1-6.4 12.7 10.4 29.9 16.6 48.6 16.6 4.5 0 9.1-.4 13.6-1.1 20.3-3.4 37.5-14.3 47.2-29.7 8.2-13.1 10.3-28.3 6-42.9-3.3-11.2-10.2-21-19.4-28.6.6-.2 1.2-.4 1.8-.5 14.4-4.1 41-9.3 57.7 2.3l27.3-39.2c-53.8-37.4-138.3-.1-178.9 32.2-42.4 33.8-60.5 85.1-51.4 137.8-47.8-13.7-90-11.1-120-5.3-7.3 1.4-14.1 3.1-20.4 4.8 8.9-52.5-9.2-103.7-51.5-137.4-40.8-31.9-125.2-69.2-179-31.8l27.3 39.2c14.2-9.9 36.3-8.7 58.9-2-8.3 7.3-14.2 16.8-16.7 27.5-3.7 16.4.9 33.8 12.7 47.9 10.4 12.4 25.5 21.3 42.7 25.3 6.2 1.4 12.5 2.1 18.7 2.1 15.1 0 29.1-4.3 40-11.7.1.4.1.8.2 1.2 3.2 23.1-1.9 48.6-14.5 71.8-11.4 21.1-20.4 41.2-27.5 60-27.2-22.3-52.2-45.2-69.7-66.1l-37-44.1-5.1 57.4c-.2 2.1-4.4 51.3 7.3 106.7 15.6 73.6 52.1 123.9 106 146.1.1 4 .3 8.6.8 13.8-44.2-14.3-103.1-44.3-122.6-104.7l-7.5-23.2-23 8c-22.1 7.7-38 17.6-49.6 27.9-7.5-22-13.4-48.2-9.4-68.3l9.3-46.7-43 20.5c-8.8 4.2-23.8 12.8-38.8 28.2-.9-22.1-1.3-47.7-.2-75.2 2.9-76.4 17.4-182.5 69.8-253.5l10.2-13.9-.1-.1c5.8-7.4 14.2-17.6 25-29.3 2.4-2 59.8-49.2 58.1-122.8-.8-35.8-15.3-70.8-43.1-104.5 26.9 8.5 50.2 19.8 69.7 34 29.5 21.4 43.8 44.8 50.6 60.6l9.5 21.9 21.9-9.5c23.3-10.1 47.5-18.1 71.7-23.7l12.9-3 4.3-12.6c5-14.7 10.4-27.9 16-39.6 1.3 9.5 3.2 19.1 5.8 28.3l5.2 18.7 19.4-1.8c9.4-.6 18.9-1.4 28.3-1.4H506c9.4 0 19 .8 28.3 1.4l19.4 1.6 5.2-18.6c2.6-9.2 4.4-18.7 5.8-28.2 5.6 11.7 11 25 16 39.6l4.3 12.6 12.9 3c24.2 5.6 48.4 13.6 71.7 23.7l21.9 9.5 9.5-21.9c6.8-15.8 21.2-39.1 50.6-60.6 19.3-14 42.3-25.3 68.9-33.8-27.7 33.6-42.1 68.5-42.9 104.2-1.7 73.6 55.6 120.8 58.1 122.8.6.5 1.2.9 1.8 1.3 10.3 11.2 18.2 20.9 23.8 28.1l-.1.1 10.2 13.8c67.6 91.1 73.6 238.8 69.9 328.6zm-276-.7c2.8-2.2 5.6-4.4 8.3-6.5 17.4-13.8 32.9-26.9 46.6-39.4-3.3 33.5-12.1 75.3-34.4 107.1-.5.7-.9 1.3-1.4 2 0-.7-.1-1.3-.1-2-.1-2.4-.4-4.7-.6-7.1-2.3-18.3-8.5-36.7-18.4-54.1zm-20.7-239c1.9-3 6.7-6.6 14.6-7.9 1.9-.3 3.8-.5 5.7-.5 11.4 0 20.7 5.7 22.3 11.1.3 1 .4 2.2-.7 4-1.9 3-6.7 6.6-14.6 7.9-1.9.3-3.8.5-5.7.5-11.4 0-20.7-5.7-22.3-11.1-.4-1-.5-2.2.7-4zm-285.5 8.4c-.6 2.8-6.8 6.9-16.3 6.9-2.6 0-5.3-.3-8-.9-6.9-1.6-13-5-16.7-9.4-2-2.4-3.1-5-2.7-6.6.6-2.8 6.8-6.9 16.3-6.9 2.6 0 5.3.3 8 .9 6.9 1.6 13 5 16.7 9.4 2 2.5 3.1 5 2.7 6.6zm-25.4 231.3c-9.6 17.2-15.8 35.3-17.9 53.4-.3 2.4-.5 4.7-.6 7.1 0 .6-.1 1.1-.1 1.7 0 .7-.1 1.4-.1 2.1-24.3-32.3-33.7-76.1-37.1-110.9 14 12.7 29.9 26.2 47.8 40.3 2.6 2.1 5.3 4.2 8 6.3z"/><path d="M432.9 728.2c-6.9 3.4-13.3 8.8-18.5 16.2-4.3 6.1-7.7 13.5-9.8 22.3-.7 3.1-1.3 6.4-1.7 9.8-.8 7-.8 14.7.2 23.1 0 0 22.2 1.1 43.1-4.7 9.2-2.5 18.2-6.4 24.9-12.2 2.2-1.9 4.1-4 5.7-6.3 3-4.2 4.9-9.1 5.5-14.9.3-2.7.3-5.5 0-8.6-2.9-27.1-28.1-35.4-49.4-24.7zM594.7 765.9c-2.2-8.7-5.7-16.1-10.1-22.1-5.3-7.3-11.9-12.7-18.9-16-21.2-10.1-45.8-1.6-48.7 25.2-.3 2.7-.3 5.3-.1 7.7.5 6.2 2.5 11.4 5.6 15.8 1.5 2.1 3.2 4 5.1 5.8 6.6 5.9 15.4 9.9 24.5 12.5 21.2 6.1 44.1 5 44.1 5 1-8.4 1-16.1.2-23.1-.2-3.9-.9-7.5-1.7-10.8z"/></svg>